<?xml version="1.0" encoding="UTF-8" standalone="no"?>
<!DOCTYPE svg PUBLIC "-//W3C//DTD SVG 1.1//EN"
 "http://www.w3.org/Graphics/SVG/1.1/DTD/svg11.dtd">
<!-- Generated by graphviz version 2.43.0 (0)
 -->
<!-- Pages: 1 -->
<svg width="1582pt" height="404pt"
 viewBox="0.00 0.00 1582.34 404.00" xmlns="http://www.w3.org/2000/svg" xmlns:xlink="http://www.w3.org/1999/xlink">
<g id="graph0" class="graph" transform="scale(1 1) rotate(0) translate(4 400)">
<polygon fill="white" stroke="transparent" points="-4,4 -4,-400 1578.34,-400 1578.34,4 -4,4"/>
<!-- 1 -->
<g id="node1" class="node">
<title>1</title>
<ellipse fill="none" stroke="black" cx="805.19" cy="-378" rx="35.19" ry="18"/>
<text text-anchor="middle" x="805.19" y="-374.3" font-family="Times,serif" font-size="14.00">None</text>
</g>
<!-- 2 -->
<g id="node2" class="node">
<title>2</title>
<ellipse fill="none" stroke="black" cx="675.19" cy="-306" rx="72.29" ry="18"/>
<text text-anchor="middle" x="675.19" y="-302.3" font-family="Times,serif" font-size="14.00">(7, 4) [T3, t4]</text>
</g>
<!-- 1&#45;&#45;2 -->
<g id="edge1" class="edge">
<title>1&#45;&#45;2</title>
<path fill="none" stroke="black" d="M781.95,-364.49C760.19,-352.77 727.59,-335.22 704.14,-322.59"/>
</g>
<!-- 9 -->
<g id="node3" class="node">
<title>9</title>
<ellipse fill="none" stroke="black" cx="936.19" cy="-306" rx="72.29" ry="18"/>
<text text-anchor="middle" x="936.19" y="-302.3" font-family="Times,serif" font-size="14.00">(7, 4) [T0, t4]</text>
</g>
<!-- 1&#45;&#45;9 -->
<g id="edge2" class="edge">
<title>1&#45;&#45;9</title>
<path fill="none" stroke="black" d="M828.61,-364.49C850.54,-352.77 883.39,-335.22 907.01,-322.59"/>
</g>
<!-- 3 -->
<g id="node4" class="node">
<title>3</title>
<ellipse fill="none" stroke="black" cx="345.19" cy="-234" rx="109.38" ry="18"/>
<text text-anchor="middle" x="345.19" y="-230.3" font-family="Times,serif" font-size="14.00">((7, 4), (7, 5)) [T3, t4]</text>
</g>
<!-- 2&#45;&#45;3 -->
<g id="edge3" class="edge">
<title>2&#45;&#45;3</title>
<path fill="none" stroke="black" d="M622.17,-293.75C564.23,-281.46 471.42,-261.78 409.4,-248.62"/>
</g>
<!-- 6 -->
<g id="node5" class="node">
<title>6</title>
<ellipse fill="none" stroke="black" cx="675.19" cy="-234" rx="109.38" ry="18"/>
<text text-anchor="middle" x="675.19" y="-230.3" font-family="Times,serif" font-size="14.00">((7, 5), (7, 4)) [T0, t4]</text>
</g>
<!-- 2&#45;&#45;6 -->
<g id="edge4" class="edge">
<title>2&#45;&#45;6</title>
<path fill="none" stroke="black" d="M675.19,-287.7C675.19,-276.85 675.19,-262.92 675.19,-252.1"/>
</g>
<!-- 10 -->
<g id="node6" class="node">
<title>10</title>
<ellipse fill="none" stroke="black" cx="936.19" cy="-234" rx="72.29" ry="18"/>
<text text-anchor="middle" x="936.19" y="-230.3" font-family="Times,serif" font-size="14.00">(7, 5) [T3, t4]</text>
</g>
<!-- 9&#45;&#45;10 -->
<g id="edge5" class="edge">
<title>9&#45;&#45;10</title>
<path fill="none" stroke="black" d="M936.19,-287.7C936.19,-276.85 936.19,-262.92 936.19,-252.1"/>
</g>
<!-- 13 -->
<g id="node7" class="node">
<title>13</title>
<ellipse fill="none" stroke="black" cx="1340.2" cy="-234" rx="72.29" ry="18"/>
<text text-anchor="middle" x="1340.2" y="-230.3" font-family="Times,serif" font-size="14.00">(7, 5) [T0, t4]</text>
</g>
<!-- 9&#45;&#45;13 -->
<g id="edge6" class="edge">
<title>9&#45;&#45;13</title>
<path fill="none" stroke="black" d="M993.64,-295.05C1070.4,-281.74 1205.8,-258.29 1282.6,-244.98"/>
</g>
<!-- 4 -->
<g id="node8" class="node">
<title>4</title>
<ellipse fill="none" stroke="black" cx="109.19" cy="-162" rx="109.38" ry="18"/>
<text text-anchor="middle" x="109.19" y="-158.3" font-family="Times,serif" font-size="14.00">((7, 4), (7, 3)) [T0, t5]</text>
</g>
<!-- 3&#45;&#45;4 -->
<g id="edge7" class="edge">
<title>3&#45;&#45;4</title>
<path fill="none" stroke="black" d="M294.56,-217.98C254.74,-206.17 199.53,-189.8 159.73,-177.99"/>
</g>
<!-- 5 -->
<g id="node9" class="node">
<title>5</title>
<ellipse fill="none" stroke="black" cx="345.19" cy="-162" rx="109.38" ry="18"/>
<text text-anchor="middle" x="345.19" y="-158.3" font-family="Times,serif" font-size="14.00">((7, 3), (7, 4)) [T3, t5]</text>
</g>
<!-- 3&#45;&#45;5 -->
<g id="edge8" class="edge">
<title>3&#45;&#45;5</title>
<path fill="none" stroke="black" d="M345.19,-215.7C345.19,-204.85 345.19,-190.92 345.19,-180.1"/>
</g>
<!-- 7 -->
<g id="node10" class="node">
<title>7</title>
<ellipse fill="none" stroke="black" cx="544.19" cy="-162" rx="72.29" ry="18"/>
<text text-anchor="middle" x="544.19" y="-158.3" font-family="Times,serif" font-size="14.00">(7, 5) [T0, t4]</text>
</g>
<!-- 6&#45;&#45;7 -->
<g id="edge9" class="edge">
<title>6&#45;&#45;7</title>
<path fill="none" stroke="black" d="M644.48,-216.59C623,-205.11 594.49,-189.88 573.36,-178.59"/>
</g>
<!-- 8 -->
<g id="node11" class="node">
<title>8</title>
<ellipse fill="none" stroke="black" cx="706.19" cy="-162" rx="72.29" ry="18"/>
<text text-anchor="middle" x="706.19" y="-158.3" font-family="Times,serif" font-size="14.00">(7, 5) [T3, t4]</text>
</g>
<!-- 6&#45;&#45;8 -->
<g id="edge10" class="edge">
<title>6&#45;&#45;8</title>
<path fill="none" stroke="black" d="M682.85,-215.7C687.66,-204.85 693.83,-190.92 698.62,-180.1"/>
</g>
<!-- 11 -->
<g id="node12" class="node">
<title>11</title>
<ellipse fill="none" stroke="black" cx="905.19" cy="-162" rx="109.38" ry="18"/>
<text text-anchor="middle" x="905.19" y="-158.3" font-family="Times,serif" font-size="14.00">((7, 5), (7, 4)) [T0, t5]</text>
</g>
<!-- 10&#45;&#45;11 -->
<g id="edge11" class="edge">
<title>10&#45;&#45;11</title>
<path fill="none" stroke="black" d="M928.69,-216.05C923.88,-205.21 917.67,-191.18 912.84,-180.28"/>
</g>
<!-- 12 -->
<g id="node13" class="node">
<title>12</title>
<ellipse fill="none" stroke="black" cx="1141.2" cy="-162" rx="109.38" ry="18"/>
<text text-anchor="middle" x="1141.2" y="-158.3" font-family="Times,serif" font-size="14.00">((7, 4), (7, 5)) [T3, t5]</text>
</g>
<!-- 10&#45;&#45;12 -->
<g id="edge12" class="edge">
<title>10&#45;&#45;12</title>
<path fill="none" stroke="black" d="M977.18,-219C1011.5,-207.27 1060.5,-190.55 1096,-178.43"/>
</g>
<!-- 14 -->
<g id="node14" class="node">
<title>14</title>
<ellipse fill="none" stroke="black" cx="1340.2" cy="-162" rx="72.29" ry="18"/>
<text text-anchor="middle" x="1340.2" y="-158.3" font-family="Times,serif" font-size="14.00">(7, 5) [T3, t5]</text>
</g>
<!-- 13&#45;&#45;14 -->
<g id="edge13" class="edge">
<title>13&#45;&#45;14</title>
<path fill="none" stroke="black" d="M1340.2,-215.7C1340.2,-204.85 1340.2,-190.92 1340.2,-180.1"/>
</g>
<!-- 19 -->
<g id="node15" class="node">
<title>19</title>
<ellipse fill="none" stroke="black" cx="1502.2" cy="-162" rx="72.29" ry="18"/>
<text text-anchor="middle" x="1502.2" y="-158.3" font-family="Times,serif" font-size="14.00">(7, 5) [T0, t5]</text>
</g>
<!-- 13&#45;&#45;19 -->
<g id="edge14" class="edge">
<title>13&#45;&#45;19</title>
<path fill="none" stroke="black" d="M1374.5,-218.15C1401.9,-206.32 1440.1,-189.81 1467.6,-177.94"/>
</g>
<!-- 15 -->
<g id="node16" class="node">
<title>15</title>
<ellipse fill="none" stroke="black" cx="1222.2" cy="-90" rx="109.38" ry="18"/>
<text text-anchor="middle" x="1222.2" y="-86.3" font-family="Times,serif" font-size="14.00">((7, 6), (7, 5)) [T0, t5]</text>
</g>
<!-- 14&#45;&#45;15 -->
<g id="edge15" class="edge">
<title>14&#45;&#45;15</title>
<path fill="none" stroke="black" d="M1313.4,-145.12C1294.5,-133.9 1269.2,-118.91 1250.1,-107.55"/>
</g>
<!-- 18 -->
<g id="node17" class="node">
<title>18</title>
<ellipse fill="none" stroke="black" cx="1458.2" cy="-90" rx="109.38" ry="18"/>
<text text-anchor="middle" x="1458.2" y="-86.3" font-family="Times,serif" font-size="14.00">((7, 5), (7, 6)) [T3, t5]</text>
</g>
<!-- 14&#45;&#45;18 -->
<g id="edge16" class="edge">
<title>14&#45;&#45;18</title>
<path fill="none" stroke="black" d="M1367,-145.12C1385.9,-133.9 1411.1,-118.91 1430.3,-107.55"/>
</g>
<!-- 16 -->
<g id="node18" class="node">
<title>16</title>
<ellipse fill="none" stroke="black" cx="1141.2" cy="-18" rx="72.29" ry="18"/>
<text text-anchor="middle" x="1141.2" y="-14.3" font-family="Times,serif" font-size="14.00">(0, 5) [T0, t8]</text>
</g>
<!-- 15&#45;&#45;16 -->
<g id="edge17" class="edge">
<title>15&#45;&#45;16</title>
<path fill="none" stroke="black" d="M1202.6,-72.06C1189.8,-60.97 1173.1,-46.55 1160.3,-35.55"/>
</g>
<!-- 17 -->
<g id="node19" class="node">
<title>17</title>
<ellipse fill="none" stroke="black" cx="1303.2" cy="-18" rx="72.29" ry="18"/>
<text text-anchor="middle" x="1303.2" y="-14.3" font-family="Times,serif" font-size="14.00">(0, 5) [T3, t8]</text>
</g>
<!-- 15&#45;&#45;17 -->
<g id="edge18" class="edge">
<title>15&#45;&#45;17</title>
<path fill="none" stroke="black" d="M1241.8,-72.06C1254.6,-60.97 1271.3,-46.55 1284,-35.55"/>
</g>
</g>
</svg>
